<?xml version="1.0" encoding="UTF-8" standalone="no"?>
<!-- Created with Inkscape (http://www.inkscape.org/) -->

<svg
   xmlns:dc="http://purl.org/dc/elements/1.1/"
   xmlns:cc="http://creativecommons.org/ns#"
   xmlns:rdf="http://www.w3.org/1999/02/22-rdf-syntax-ns#"
   xmlns:svg="http://www.w3.org/2000/svg"
   xmlns="http://www.w3.org/2000/svg"
   xmlns:sodipodi="http://sodipodi.sourceforge.net/DTD/sodipodi-0.dtd"
   xmlns:inkscape="http://www.inkscape.org/namespaces/inkscape"
   width="41.469147"
   height="41.860233"
   viewBox="0 0 41.469147 41.860234"
   id="svg2"
   version="1.1"
   inkscape:version="0.92.2 5c3e80d, 2017-08-06"
   sodipodi:docname="logo_n2i_blanc.svg">
  <defs
     id="defs4" />
  <sodipodi:namedview
     id="base"
     pagecolor="#ffffff"
     bordercolor="#666666"
     borderopacity="1.0"
     inkscape:pageopacity="0.0"
     inkscape:pageshadow="2"
     inkscape:zoom="7.919596"
     inkscape:cx="3.0533849"
     inkscape:cy="5.9695629"
     inkscape:document-units="px"
     inkscape:current-layer="layer1"
     showgrid="false"
     fit-margin-top="0"
     fit-margin-left="0"
     fit-margin-right="0"
     fit-margin-bottom="0"
     inkscape:window-width="1440"
     inkscape:window-height="855"
     inkscape:window-x="0"
     inkscape:window-y="1"
     inkscape:window-maximized="1" />
  <metadata
     id="metadata7">
    <rdf:RDF>
      <cc:Work
         rdf:about="">
        <dc:format>image/svg+xml</dc:format>
        <dc:type
           rdf:resource="http://purl.org/dc/dcmitype/StillImage" />
        <dc:title />
      </cc:Work>
    </rdf:RDF>
  </metadata>
  <g
     inkscape:label="Calque 1"
     inkscape:groupmode="layer"
     id="layer1"
     transform="translate(-99.55663,-336.06258)">
    <g
       transform="matrix(0.49240239,0,0,0.49240239,1546.3995,317.03242)"
       inkscape:label="textes"
       id="layer3"
       style="fill:#fdfdfd;fill-opacity:1;stroke-width:2.16624999">
      <g
         transform="matrix(0.32416759,0,0,0.32475298,-2615.6152,-137.75424)"
         id="g2114"
         style="fill:#fdfdfd;fill-opacity:1;stroke-width:4.11944246">
        <g
           style="fill:#fdfdfd;fill-opacity:1;stroke-width:4.11944246"
           id="g2108"
           transform="matrix(0.35593022,-0.29512082,0.29320436,0.35825668,-1541.0334,-953.79692)">
          <path
             id="path2106"
             transform="matrix(0.88729897,0.73092956,-0.73092956,0.88729897,9335.8685,1869.7382)"
             d="m -6072.7207,6716.0234 a 23.425975,49.129478 80.540549 0 0 -0.8418,0.012 23.425975,49.129478 80.540549 0 0 -14.4922,1.3554 23.425975,49.129478 80.540549 0 0 -44.3887,26.3633 c -0.5044,1.1301 -0.6977,2.4165 -0.4824,3.7344 l 3.4785,21.2851 c 0.586,3.5862 3.9451,6.002 7.5313,5.4161 l 20.75,-3.3907 5.8183,35.6133 c -27.1816,7.3326 -52.1498,19.6412 -73.7421,35.8203 l -12.0664,-14.6484 10.207,-8.4082 c 1.8411,-1.5167 2.1006,-4.2195 0.584,-6.0606 l -13.2969,-16.1425 c -0.9479,-1.1507 -2.3577,-1.6828 -3.7324,-1.5508 -0.8249,0.079 -1.6377,0.398 -2.3282,0.9668 l -42.7265,35.1972 c -1.8411,1.5167 -2.1026,4.2195 -0.586,6.0606 l 13.2969,16.1426 c 1.5167,1.8411 4.2195,2.1006 6.0606,0.5839 l 10.207,-8.4082 12.4766,15.1465 c -36.6778,36.2966 -59.2266,85.5028 -59.2266,139.6836 0,111.5789 95.6273,202.1387 213.4453,202.1387 80.1465,0 149.9825,-41.8986 186.4727,-103.8203 -232.972,78.662 -343.2034,-197.914 -202.4414,-299.1973 l 0.9336,-0.1523 -0.076,-0.4707 c 0.051,-0.037 0.1007,-0.075 0.1523,-0.1114 -0.057,0 -0.1131,0.01 -0.1699,0.014 l -5.7988,-35.498 19.8808,-3.2481 c 3.5862,-0.586 6.0018,-3.9451 5.4161,-7.5312 l -3.3497,-20.4942 h 0.012 a 23.425975,49.129478 80.540549 0 0 -0.035,-0.1465 l -0.1055,-0.6426 c -0.159,-0.973 -0.5265,-1.855 -1.0429,-2.6191 a 23.425975,49.129478 80.540549 0 0 -35.793,-12.9903 z m -11.2148,4.7598 c 0.1614,0.012 0.288,0.037 0.3769,0.078 -12.9935,3.5118 -36.478,17.0824 -40.4629,24.3633 -3.2361,5.9129 -3.2207,14.4219 -3.2207,14.4219 0,0 -1.318,-7.5168 -0.9805,-14.2813 0.5683,-11.3892 39.2823,-24.9457 44.2872,-24.582 z m -64.1739,119.6465 c 8.2128,0.2268 14.5803,10.166 14.2481,22.2441 -0.3317,12.0778 -7.2382,21.7465 -15.4512,21.5196 -8.2127,-0.2241 -14.58,-10.2583 -14.248,-22.336 0.3315,-12.0779 7.2383,-21.6519 15.4511,-21.4277 z m -17.8105,62.7129 c 9.7463,0.2674 17.3293,12.0995 16.9355,26.4316 -0.3941,14.3323 -8.6192,25.7244 -18.3652,25.457 -9.7455,-0.2673 -17.3218,-12.0974 -16.9277,-26.4296 0.3935,-14.3319 8.6119,-25.7265 18.3574,-25.459 z m -61.1739,50.8144 c 4.9628,42.3585 22.0727,83.2199 48.7676,116.4805 -5.6266,4.0947 -9.8418,9.8318 -11.1699,16.8418 -1.8372,9.699 2.3795,19.0486 9.2969,25.9531 6.9178,6.9043 16.6448,11.8827 27.9004,14.0156 11.2561,2.1314 22.13,1.0514 31.0937,-2.8437 1.0156,-0.4405 2.0418,-0.896 3.0117,-1.4219 10.0603,6.118 20.6376,11.4569 31.5196,15.9512 -0.3667,-1.6211 -0.5201,-3.1776 -0.2168,-4.7793 2.1705,-11.4569 21.5902,-17.4869 43.3183,-13.3711 21.7271,4.1157 37.5885,16.8301 35.418,28.2871 -0.4727,2.4957 -1.7999,4.7184 -3.7519,6.6445 28.8423,1.3533 57.9229,-2.7784 85.2324,-12.164 -42.0927,35.7954 -100.6468,51.3817 -154.961,41.2324 -47.9376,-9.0812 -91.7741,-37.8928 -119.25,-78.2109 -27.4754,-40.3184 -38.2572,-91.6501 -29.1777,-139.5879 0.8324,-4.3774 1.8253,-8.7214 2.9687,-13.0274 z m 82.586,117.5918 c 2.8929,-0.06 5.9088,0.183 8.9746,0.7637 16.3503,3.0972 27.9124,14.5926 25.8066,25.7109 -2.1064,11.1186 -17.0696,17.5955 -33.4199,14.4981 -16.3506,-3.0973 -27.9129,-14.5984 -25.8066,-25.7168 1.7113,-9.0336 11.9098,-14.9966 24.4453,-15.2559 z"
             style="opacity:1;fill:#fdfdfd;fill-opacity:1;fill-rule:nonzero;stroke:none;stroke-width:61.79163742;stroke-linecap:round;stroke-linejoin:round;stroke-miterlimit:4;stroke-dasharray:none;stroke-dashoffset:0;stroke-opacity:1"
             inkscape:connector-curvature="0" />
        </g>
        <path
           id="path2110"
           d="m -868.43109,612.42133 -0.45246,0.45542 -2.58231,2.59918 v 6.94195 l 1.83472,1.84671 1.20005,-1.2079 z m -1.19692,12.02671 -0.19053,0.19172 -1.64732,1.65606 v 6.94189 l 3.03477,3.05461 v -10.59786 z m 26.47535,14.3226 0.4452,0.45436 2.50464,2.55543 h 8.19011 l 2.94985,-3.00979 z m 14.18093,0.0792 -0.45453,0.46273 -2.50364,2.55437 v 6.82103 l 1.81092,1.82067 1.14725,-1.19744 z m -14.27206,0.006 v 0.6441 9.81412 l 1.18346,1.19124 1.80678,-1.81651 v -6.82316 z m 13.12794,11.812 -0.19467,0.19593 -1.61938,1.63104 v 6.82204 l 2.95817,3.0171 v -10.42796 z m -11.94756,0.006 -0.1874,0.19487 -0.99298,1.03485 v 10.42492 l 2.99024,-3.00984 v -6.82311 z m 1.86059,8.73129 -0.0776,0.0803 -2.87329,2.92852 h 14.09192 l -2.95091,-3.00878 h -8.19011 z m 42.13279,17.37097 -0.45246,0.45543 -3.5183,3.54236 v 9.45773 l 2.42178,2.4366 1.54898,-1.56012 z m -62.39052,16.17146 0.44525,0.45435 3.9573,4.03738 h 12.96127 l 4.40149,-4.49173 z m 60.84467,0.25633 -0.19053,0.19178 -2.23438,2.24696 v 9.45773 l 3.97076,3.99773 v -14.28296 z m -38.71389,0.10005 -0.45347,0.46065 -3.95629,4.0353 v 10.774 l 2.73344,2.7503 1.67632,-1.74981 z m -22.49625,0.005 v 0.64405 15.6243 l 1.73325,1.74459 2.72831,-2.74716 v -10.77506 z m 20.82306,18.72891 -0.19466,0.19487 -2.54191,2.55858 v 10.774 l 4.40976,4.49696 v -16.21521 z m -19.09288,0.005 -0.1874,0.19593 -1.54278,1.60703 v 16.21312 l 4.46156,-4.49077 v -10.77501 z m 3.03784,13.88698 -0.0776,0.0792 -4.32388,4.41255 h 21.76425 l -4.40149,-4.49173 h -12.96127 z"
           style="font-style:normal;font-variant:normal;font-weight:normal;font-stretch:normal;font-size:medium;line-height:100%;font-family:DS-Digital;-inkscape-font-specification:DS-Digital;text-align:start;writing-mode:lr-tb;text-anchor:start;fill:#fdfdfd;fill-opacity:1;stroke:none;stroke-width:6.52548933;stroke-miterlimit:4;stroke-dasharray:none;stroke-opacity:1"
           inkscape:connector-curvature="0" />
        <path
           id="path2112"
           d="m -866.86763,584.76204 a 4.1988041,4.2262486 0 0 0 -4.19856,4.22702 4.1988041,4.2262486 0 0 0 4.19856,4.22605 4.1988041,4.2262486 0 0 0 4.19962,-4.22605 4.1988041,4.2262486 0 0 0 -4.19962,-4.22702 z m 20.7682,2.5335 a 4.1988041,4.2262486 0 0 0 -4.19857,4.226 4.1988041,4.2262486 0 0 0 4.19857,4.22606 4.1988041,4.2262486 0 0 0 4.19856,-4.22606 4.1988041,4.2262486 0 0 0 -4.19856,-4.226 z m 20.0486,5.12852 a 4.1988041,4.2262486 0 0 0 -4.19862,4.22606 4.1988041,4.2262486 0 0 0 4.19862,4.22601 4.1988041,4.2262486 0 0 0 4.19856,-4.22601 4.1988041,4.2262486 0 0 0 -4.19856,-4.22606 z m 22.31506,1.62165 c -0.85377,0.0384 -1.68348,0.448 -2.23958,1.19226 l -13.23041,17.70756 c -0.98864,1.32315 -0.72649,3.18923 0.58807,4.18433 l 2.85151,2.1594 c 1.31456,0.9951 3.16852,0.73118 4.15716,-0.59197 l 13.23147,-17.70756 c 0.98863,-1.32315 0.72643,-3.1903 -0.58813,-4.1854 l -2.85251,-2.15833 c -0.57514,-0.43536 -1.25354,-0.63023 -1.91758,-0.60029 z m 11.37602,21.37393 c -2.31873,1.6e-4 -4.1984,1.89217 -4.19856,4.22606 1.6e-4,2.33388 1.87983,4.22584 4.19856,4.226 2.31878,-1e-4 4.1984,-1.89206 4.19856,-4.226 -1.6e-4,-2.33394 -1.87978,-4.22595 -4.19856,-4.22606 z m 13.81233,14.91148 a 4.1988041,4.2262486 0 0 0 -4.19856,4.226 4.1988041,4.2262486 0 0 0 4.19856,4.22601 4.1988041,4.2262486 0 0 0 4.19963,-4.22601 4.1988041,4.2262486 0 0 0 -4.19963,-4.226 z m 10.92351,19.64498 a 4.1988041,4.2262486 0 0 0 -4.19856,4.22601 4.1988041,4.2262486 0 0 0 4.19856,4.226 4.1988041,4.2262486 0 0 0 4.19861,-4.226 4.1988041,4.2262486 0 0 0 -4.19861,-4.22601 z m 17.32443,18.3506 c -0.19758,-0.005 -0.39844,0.0139 -0.60053,0.0523 l -21.63172,4.102 c -1.61636,0.30655 -2.67249,1.86331 -2.36798,3.49028 l 0.66059,3.52983 c 0.30456,1.62698 1.85121,2.68995 3.46757,2.38346 l 21.63173,-4.102 c 1.61641,-0.3065 2.67253,-1.86331 2.36797,-3.49024 l -0.66059,-3.52988 c -0.26644,-1.42357 -1.48399,-2.41515 -2.86704,-2.43553 z m -8.37645,22.99872 a 4.1988041,4.2262486 0 0 0 -4.19856,4.22601 4.1988041,4.2262486 0 0 0 4.19856,4.226 4.1988041,4.2262486 0 0 0 4.19962,-4.226 4.1988041,4.2262486 0 0 0 -4.19962,-4.22601 z m -1.62559,20.47766 a 4.1988041,4.2262486 0 0 0 -4.19856,4.22601 4.1988041,4.2262486 0 0 0 4.19856,4.22605 4.1988041,4.2262486 0 0 0 4.19963,-4.22605 4.1988041,4.2262486 0 0 0 -4.19963,-4.22601 z m -6.63588,20.54233 a 4.1988041,4.2262486 0 0 0 -4.19861,4.226 4.1988041,4.2262486 0 0 0 4.19861,4.22601 4.1988041,4.2262486 0 0 0 4.19857,-4.22601 4.1988041,4.2262486 0 0 0 -4.19857,-4.226 z"
           style="font-style:normal;font-variant:normal;font-weight:normal;font-stretch:normal;font-size:medium;line-height:100%;font-family:DS-Digital;-inkscape-font-specification:DS-Digital;text-align:start;writing-mode:lr-tb;text-anchor:start;fill:#fdfdfd;fill-opacity:1;stroke:none;stroke-width:6.52548933;stroke-miterlimit:4;stroke-dasharray:none;stroke-opacity:1"
           inkscape:connector-curvature="0" />
      </g>
    </g>
  </g>
</svg>
